<mxfile host="app.diagrams.net" modified="2024-01-12T01:49:20.840Z" agent="Mozilla/5.0 (Windows NT 10.0; Win64; x64) AppleWebKit/537.36 (KHTML, like Gecko) Chrome/120.0.0.0 Safari/537.36" etag="mWfl7RHufs93NVdyp6LK" version="22.1.18" type="github">
  <diagram name="Page-1" id="QMnDTYhlb8s9HRZRu8lS">
    <mxGraphModel dx="1434" dy="780" grid="1" gridSize="10" guides="1" tooltips="1" connect="1" arrows="1" fold="1" page="1" pageScale="1" pageWidth="1654" pageHeight="2336" math="0" shadow="0">
      <root>
        <mxCell id="0" />
        <mxCell id="1" parent="0" />
        <mxCell id="M0tVn1bA8UuuEmm1kQKi-35" style="edgeStyle=orthogonalEdgeStyle;rounded=0;orthogonalLoop=1;jettySize=auto;html=1;" parent="1" source="M0tVn1bA8UuuEmm1kQKi-1" edge="1">
          <mxGeometry relative="1" as="geometry">
            <mxPoint x="335.5" y="840.5000000000002" as="targetPoint" />
          </mxGeometry>
        </mxCell>
        <mxCell id="M0tVn1bA8UuuEmm1kQKi-1" value="&lt;b&gt;User&lt;/b&gt;" style="points=[[0.35,0,0],[0.98,0.51,0],[1,0.71,0],[0.67,1,0],[0,0.795,0],[0,0.65,0]];verticalLabelPosition=bottom;sketch=0;html=1;verticalAlign=top;aspect=fixed;align=center;pointerEvents=1;shape=mxgraph.cisco19.user;fillColor=#005073;strokeColor=none;" parent="1" vertex="1">
          <mxGeometry x="135.5" y="805.5" width="70" height="70" as="geometry" />
        </mxCell>
        <mxCell id="CWM3fCKkXNQ2MRT5B5kz-28" style="edgeStyle=orthogonalEdgeStyle;rounded=0;orthogonalLoop=1;jettySize=auto;html=1;" parent="1" source="M0tVn1bA8UuuEmm1kQKi-3" edge="1">
          <mxGeometry relative="1" as="geometry">
            <mxPoint x="610" y="970" as="targetPoint" />
          </mxGeometry>
        </mxCell>
        <mxCell id="M0tVn1bA8UuuEmm1kQKi-3" value="&lt;b&gt;Load Balance&lt;/b&gt;" style="outlineConnect=0;dashed=0;verticalLabelPosition=bottom;verticalAlign=top;align=center;html=1;shape=mxgraph.aws3.application_load_balancer;fillColor=#F58536;gradientColor=none;" parent="1" vertex="1">
          <mxGeometry x="521" y="796.75" width="69" height="72" as="geometry" />
        </mxCell>
        <mxCell id="M0tVn1bA8UuuEmm1kQKi-30" style="edgeStyle=orthogonalEdgeStyle;rounded=0;orthogonalLoop=1;jettySize=auto;html=1;" parent="1" edge="1">
          <mxGeometry relative="1" as="geometry">
            <mxPoint x="417" y="1492.5" as="targetPoint" />
            <mxPoint x="331.99999459517835" y="1492.5172413793105" as="sourcePoint" />
          </mxGeometry>
        </mxCell>
        <mxCell id="M0tVn1bA8UuuEmm1kQKi-21" value="Commit" style="text;strokeColor=none;align=center;fillColor=none;html=1;verticalAlign=middle;whiteSpace=wrap;rounded=0;" parent="1" vertex="1">
          <mxGeometry x="347" y="1465" width="60" height="30" as="geometry" />
        </mxCell>
        <mxCell id="M0tVn1bA8UuuEmm1kQKi-31" style="edgeStyle=orthogonalEdgeStyle;rounded=0;orthogonalLoop=1;jettySize=auto;html=1;" parent="1" source="M0tVn1bA8UuuEmm1kQKi-23" edge="1">
          <mxGeometry relative="1" as="geometry">
            <mxPoint x="497" y="1495" as="targetPoint" />
          </mxGeometry>
        </mxCell>
        <mxCell id="M0tVn1bA8UuuEmm1kQKi-43" style="edgeStyle=orthogonalEdgeStyle;rounded=0;orthogonalLoop=1;jettySize=auto;html=1;entryX=0;entryY=0.423;entryDx=0;entryDy=0;entryPerimeter=0;" parent="1" source="M0tVn1bA8UuuEmm1kQKi-23" target="M0tVn1bA8UuuEmm1kQKi-26" edge="1">
          <mxGeometry relative="1" as="geometry">
            <mxPoint x="757" y="1494.9999999999998" as="targetPoint" />
          </mxGeometry>
        </mxCell>
        <mxCell id="M0tVn1bA8UuuEmm1kQKi-23" value="Jenkins" style="shape=image;verticalLabelPosition=bottom;labelBackgroundColor=default;verticalAlign=top;aspect=fixed;imageAspect=0;image=https://upload.wikimedia.org/wikipedia/commons/thumb/e/e9/Jenkins_logo.svg/1200px-Jenkins_logo.svg.png;fontStyle=1" parent="1" vertex="1">
          <mxGeometry x="597" y="1467.3799999999999" width="40" height="55.24" as="geometry" />
        </mxCell>
        <mxCell id="M0tVn1bA8UuuEmm1kQKi-25" value="Fetch Commit" style="text;strokeColor=none;align=center;fillColor=none;html=1;verticalAlign=middle;whiteSpace=wrap;rounded=0;" parent="1" vertex="1">
          <mxGeometry x="527.5" y="1460" width="60" height="30" as="geometry" />
        </mxCell>
        <mxCell id="M0tVn1bA8UuuEmm1kQKi-49" style="edgeStyle=orthogonalEdgeStyle;rounded=0;orthogonalLoop=1;jettySize=auto;html=1;" parent="1" source="M0tVn1bA8UuuEmm1kQKi-26" edge="1">
          <mxGeometry relative="1" as="geometry">
            <mxPoint x="947" y="1498.6799999999998" as="targetPoint" />
          </mxGeometry>
        </mxCell>
        <mxCell id="M0tVn1bA8UuuEmm1kQKi-26" value="&lt;b&gt;Build&lt;/b&gt;" style="image;sketch=0;aspect=fixed;html=1;points=[];align=center;fontSize=12;image=img/lib/mscae/Docker.svg;" parent="1" vertex="1">
          <mxGeometry x="767" y="1474.7399999999998" width="58.39" height="47.88" as="geometry" />
        </mxCell>
        <mxCell id="M0tVn1bA8UuuEmm1kQKi-28" value="Build Image" style="text;strokeColor=none;align=center;fillColor=none;html=1;verticalAlign=middle;whiteSpace=wrap;rounded=0;" parent="1" vertex="1">
          <mxGeometry x="659.75" y="1468.69" width="74.5" height="22.62" as="geometry" />
        </mxCell>
        <mxCell id="M0tVn1bA8UuuEmm1kQKi-33" value="&lt;div style=&quot;&quot;&gt;&lt;b style=&quot;background-color: initial;&quot;&gt;ECR&lt;/b&gt;&lt;/div&gt;" style="sketch=0;points=[[0,0,0],[0.25,0,0],[0.5,0,0],[0.75,0,0],[1,0,0],[0,1,0],[0.25,1,0],[0.5,1,0],[0.75,1,0],[1,1,0],[0,0.25,0],[0,0.5,0],[0,0.75,0],[1,0.25,0],[1,0.5,0],[1,0.75,0]];outlineConnect=0;fontColor=#232F3E;fillColor=#ED7100;strokeColor=#ffffff;dashed=0;verticalLabelPosition=bottom;verticalAlign=top;align=center;html=1;fontSize=12;fontStyle=0;aspect=fixed;shape=mxgraph.aws4.resourceIcon;resIcon=mxgraph.aws4.ecr;" parent="1" vertex="1">
          <mxGeometry x="957" y="1453.12" width="67" height="67" as="geometry" />
        </mxCell>
        <mxCell id="M0tVn1bA8UuuEmm1kQKi-36" value="&lt;b&gt;Developer&lt;/b&gt;" style="sketch=0;pointerEvents=1;shadow=0;dashed=0;html=1;strokeColor=none;fillColor=#505050;labelPosition=center;verticalLabelPosition=bottom;verticalAlign=top;outlineConnect=0;align=center;shape=mxgraph.office.users.users;" parent="1" vertex="1">
          <mxGeometry x="277" y="1465.12" width="50" height="55" as="geometry" />
        </mxCell>
        <mxCell id="M0tVn1bA8UuuEmm1kQKi-37" value="&lt;b&gt;Github&lt;/b&gt;" style="dashed=0;outlineConnect=0;html=1;align=center;labelPosition=center;verticalLabelPosition=bottom;verticalAlign=top;shape=mxgraph.weblogos.github" parent="1" vertex="1">
          <mxGeometry x="427" y="1460" width="60" height="60" as="geometry" />
        </mxCell>
        <mxCell id="M0tVn1bA8UuuEmm1kQKi-38" value="API Request" style="text;strokeColor=none;align=center;fillColor=none;html=1;verticalAlign=middle;whiteSpace=wrap;rounded=0;" parent="1" vertex="1">
          <mxGeometry x="225.5" y="805.5" width="60" height="30" as="geometry" />
        </mxCell>
        <mxCell id="M0tVn1bA8UuuEmm1kQKi-41" style="edgeStyle=orthogonalEdgeStyle;rounded=0;orthogonalLoop=1;jettySize=auto;html=1;" parent="1" source="M0tVn1bA8UuuEmm1kQKi-39" edge="1">
          <mxGeometry relative="1" as="geometry">
            <mxPoint x="515.5" y="832.75" as="targetPoint" />
          </mxGeometry>
        </mxCell>
        <mxCell id="M0tVn1bA8UuuEmm1kQKi-39" value="&lt;b&gt;&amp;nbsp;Route 53&lt;/b&gt;" style="outlineConnect=0;dashed=0;verticalLabelPosition=bottom;verticalAlign=top;align=center;html=1;shape=mxgraph.aws3.route_53;fillColor=#F58536;gradientColor=none;" parent="1" vertex="1">
          <mxGeometry x="335.5" y="790" width="70.5" height="85.5" as="geometry" />
        </mxCell>
        <mxCell id="M0tVn1bA8UuuEmm1kQKi-42" value="Maven Build" style="text;strokeColor=none;align=center;fillColor=none;html=1;verticalAlign=middle;whiteSpace=wrap;rounded=0;" parent="1" vertex="1">
          <mxGeometry x="637" y="1500" width="120" height="20" as="geometry" />
        </mxCell>
        <mxCell id="M0tVn1bA8UuuEmm1kQKi-44" value="Push Image to ECR" style="text;strokeColor=none;align=center;fillColor=none;html=1;verticalAlign=middle;whiteSpace=wrap;rounded=0;rotation=0;" parent="1" vertex="1">
          <mxGeometry x="847" y="1465" width="74.5" height="30" as="geometry" />
        </mxCell>
        <mxCell id="CWM3fCKkXNQ2MRT5B5kz-6" style="edgeStyle=orthogonalEdgeStyle;rounded=0;orthogonalLoop=1;jettySize=auto;html=1;" parent="1" source="M0tVn1bA8UuuEmm1kQKi-50" edge="1">
          <mxGeometry relative="1" as="geometry">
            <mxPoint x="617" y="1170" as="targetPoint" />
          </mxGeometry>
        </mxCell>
        <mxCell id="M0tVn1bA8UuuEmm1kQKi-50" value="" style="outlineConnect=0;dashed=0;verticalLabelPosition=bottom;verticalAlign=top;align=center;html=1;shape=mxgraph.aws3.codedeploy;fillColor=#759C3E;gradientColor=none;" parent="1" vertex="1">
          <mxGeometry x="585.12" y="1310" width="63.75" height="70" as="geometry" />
        </mxCell>
        <mxCell id="M0tVn1bA8UuuEmm1kQKi-51" style="edgeStyle=orthogonalEdgeStyle;rounded=0;orthogonalLoop=1;jettySize=auto;html=1;entryX=0.5;entryY=1;entryDx=0;entryDy=0;entryPerimeter=0;" parent="1" source="M0tVn1bA8UuuEmm1kQKi-23" target="M0tVn1bA8UuuEmm1kQKi-50" edge="1">
          <mxGeometry relative="1" as="geometry" />
        </mxCell>
        <mxCell id="M0tVn1bA8UuuEmm1kQKi-52" value="AWS Deploy" style="text;strokeColor=none;align=center;fillColor=none;html=1;verticalAlign=middle;whiteSpace=wrap;rounded=0;" parent="1" vertex="1">
          <mxGeometry x="647" y="1378" width="74.5" height="22.62" as="geometry" />
        </mxCell>
        <mxCell id="M0tVn1bA8UuuEmm1kQKi-63" value="&lt;b&gt;Cluster&lt;/b&gt;" style="outlineConnect=0;dashed=0;verticalLabelPosition=bottom;verticalAlign=top;align=center;html=1;shape=mxgraph.aws3.emr_cluster;fillColor=#F58534;gradientColor=none;" parent="1" vertex="1">
          <mxGeometry x="839.5" y="1058.56" width="70" height="73" as="geometry" />
        </mxCell>
        <mxCell id="AhehhhJTHs0CgO2B1N7j-4" style="edgeStyle=orthogonalEdgeStyle;rounded=0;orthogonalLoop=1;jettySize=auto;html=1;" parent="1" edge="1">
          <mxGeometry relative="1" as="geometry">
            <mxPoint x="909.5" y="1094.1903448275864" as="sourcePoint" />
            <mxPoint x="1019.5" y="1094.41" as="targetPoint" />
          </mxGeometry>
        </mxCell>
        <mxCell id="AhehhhJTHs0CgO2B1N7j-11" value="&lt;div style=&quot;&quot;&gt;&lt;span style=&quot;background-color: initial;&quot;&gt;Amazon VPC&lt;/span&gt;&lt;/div&gt;" style="sketch=0;outlineConnect=0;fontColor=#232F3E;gradientColor=none;strokeColor=#ffffff;fillColor=#232F3E;dashed=0;verticalLabelPosition=middle;verticalAlign=bottom;align=center;html=1;whiteSpace=wrap;fontSize=10;fontStyle=1;spacing=3;shape=mxgraph.aws4.productIcon;prIcon=mxgraph.aws4.vpc;" parent="1" vertex="1">
          <mxGeometry x="447" y="941" width="40" height="80" as="geometry" />
        </mxCell>
        <mxCell id="AhehhhJTHs0CgO2B1N7j-14" value="&lt;b&gt;DB Secondary&lt;br&gt;B&lt;br&gt;&lt;/b&gt;" style="sketch=0;points=[[0,0,0],[0.25,0,0],[0.5,0,0],[0.75,0,0],[1,0,0],[0,1,0],[0.25,1,0],[0.5,1,0],[0.75,1,0],[1,1,0],[0,0.25,0],[0,0.5,0],[0,0.75,0],[1,0.25,0],[1,0.5,0],[1,0.75,0]];outlineConnect=0;fontColor=#232F3E;fillColor=#0066CC;strokeColor=#ffffff;dashed=0;verticalLabelPosition=bottom;verticalAlign=top;align=center;html=1;fontSize=12;fontStyle=0;aspect=fixed;shape=mxgraph.aws4.resourceIcon;resIcon=mxgraph.aws4.rds_on_vmware;" parent="1" vertex="1">
          <mxGeometry x="1220" y="1058.56" width="78" height="78" as="geometry" />
        </mxCell>
        <mxCell id="AhehhhJTHs0CgO2B1N7j-21" style="edgeStyle=orthogonalEdgeStyle;rounded=0;orthogonalLoop=1;jettySize=auto;html=1;" parent="1" source="AhehhhJTHs0CgO2B1N7j-15" target="AhehhhJTHs0CgO2B1N7j-14" edge="1">
          <mxGeometry relative="1" as="geometry" />
        </mxCell>
        <mxCell id="AhehhhJTHs0CgO2B1N7j-15" value="&lt;b&gt;DB Primary&lt;br&gt;A&lt;br&gt;&lt;/b&gt;" style="sketch=0;points=[[0,0,0],[0.25,0,0],[0.5,0,0],[0.75,0,0],[1,0,0],[0,1,0],[0.25,1,0],[0.5,1,0],[0.75,1,0],[1,1,0],[0,0.25,0],[0,0.5,0],[0,0.75,0],[1,0.25,0],[1,0.5,0],[1,0.75,0]];outlineConnect=0;fontColor=#232F3E;fillColor=#0066CC;strokeColor=#ffffff;dashed=0;verticalLabelPosition=bottom;verticalAlign=top;align=center;html=1;fontSize=12;fontStyle=0;aspect=fixed;shape=mxgraph.aws4.resourceIcon;resIcon=mxgraph.aws4.rds;" parent="1" vertex="1">
          <mxGeometry x="1020" y="1058.56" width="78" height="78" as="geometry" />
        </mxCell>
        <mxCell id="AhehhhJTHs0CgO2B1N7j-22" value="Sync&amp;nbsp;" style="text;strokeColor=none;align=center;fillColor=none;html=1;verticalAlign=middle;whiteSpace=wrap;rounded=0;" parent="1" vertex="1">
          <mxGeometry x="1120" y="1063.44" width="60" height="30" as="geometry" />
        </mxCell>
        <mxCell id="CWM3fCKkXNQ2MRT5B5kz-2" style="edgeStyle=orthogonalEdgeStyle;rounded=0;orthogonalLoop=1;jettySize=auto;html=1;entryX=0;entryY=0.5;entryDx=0;entryDy=0;entryPerimeter=0;" parent="1" target="M0tVn1bA8UuuEmm1kQKi-63" edge="1">
          <mxGeometry relative="1" as="geometry">
            <mxPoint x="740" y="1095" as="sourcePoint" />
          </mxGeometry>
        </mxCell>
        <mxCell id="CWM3fCKkXNQ2MRT5B5kz-7" value="" style="group;rounded=0;fillColor=none;" parent="1" vertex="1" connectable="0">
          <mxGeometry x="444.65" y="939.72" width="330" height="310" as="geometry" />
        </mxCell>
        <mxCell id="AhehhhJTHs0CgO2B1N7j-7" value="" style="endArrow=none;dashed=1;html=1;rounded=0;strokeColor=#007FFF;" parent="CWM3fCKkXNQ2MRT5B5kz-7" edge="1">
          <mxGeometry width="50" height="50" relative="1" as="geometry">
            <mxPoint as="sourcePoint" />
            <mxPoint x="330" as="targetPoint" />
          </mxGeometry>
        </mxCell>
        <mxCell id="AhehhhJTHs0CgO2B1N7j-8" value="" style="endArrow=none;dashed=1;html=1;rounded=0;strokeColor=#007FFF;" parent="CWM3fCKkXNQ2MRT5B5kz-7" edge="1">
          <mxGeometry width="50" height="50" relative="1" as="geometry">
            <mxPoint as="sourcePoint" />
            <mxPoint y="310" as="targetPoint" />
          </mxGeometry>
        </mxCell>
        <mxCell id="AhehhhJTHs0CgO2B1N7j-9" value="" style="endArrow=none;dashed=1;html=1;rounded=0;strokeColor=#007FFF;" parent="CWM3fCKkXNQ2MRT5B5kz-7" edge="1">
          <mxGeometry width="50" height="50" relative="1" as="geometry">
            <mxPoint x="330" y="310" as="sourcePoint" />
            <mxPoint y="310" as="targetPoint" />
          </mxGeometry>
        </mxCell>
        <mxCell id="AhehhhJTHs0CgO2B1N7j-10" value="" style="endArrow=none;dashed=1;html=1;rounded=0;strokeColor=#007FFF;" parent="CWM3fCKkXNQ2MRT5B5kz-7" edge="1">
          <mxGeometry width="50" height="50" relative="1" as="geometry">
            <mxPoint x="330" y="310" as="sourcePoint" />
            <mxPoint x="330" as="targetPoint" />
          </mxGeometry>
        </mxCell>
        <mxCell id="CWM3fCKkXNQ2MRT5B5kz-8" value="" style="group;strokeColor=none;" parent="1" vertex="1" connectable="0">
          <mxGeometry x="500" y="970" width="231.82" height="250" as="geometry" />
        </mxCell>
        <mxCell id="M0tVn1bA8UuuEmm1kQKi-47" value="" style="endArrow=none;dashed=1;html=1;rounded=0;strokeWidth=1;" parent="CWM3fCKkXNQ2MRT5B5kz-8" edge="1">
          <mxGeometry width="50" height="50" relative="1" as="geometry">
            <mxPoint y="250" as="sourcePoint" />
            <mxPoint x="1.2011398963730566" as="targetPoint" />
          </mxGeometry>
        </mxCell>
        <mxCell id="M0tVn1bA8UuuEmm1kQKi-48" value="" style="endArrow=none;dashed=1;html=1;rounded=0;strokeWidth=1;" parent="CWM3fCKkXNQ2MRT5B5kz-8" edge="1">
          <mxGeometry width="50" height="50" relative="1" as="geometry">
            <mxPoint x="1.2011398963730566" as="sourcePoint" />
            <mxPoint x="231.82" as="targetPoint" />
            <Array as="points">
              <mxPoint x="126.11968911917101" />
            </Array>
          </mxGeometry>
        </mxCell>
        <mxCell id="M0tVn1bA8UuuEmm1kQKi-53" value="" style="endArrow=none;dashed=1;html=1;rounded=0;strokeWidth=1;" parent="CWM3fCKkXNQ2MRT5B5kz-8" edge="1">
          <mxGeometry width="50" height="50" relative="1" as="geometry">
            <mxPoint y="250" as="sourcePoint" />
            <mxPoint x="231.82" y="250" as="targetPoint" />
          </mxGeometry>
        </mxCell>
        <mxCell id="M0tVn1bA8UuuEmm1kQKi-54" value="" style="endArrow=none;dashed=1;html=1;rounded=0;strokeWidth=1;" parent="CWM3fCKkXNQ2MRT5B5kz-8" edge="1">
          <mxGeometry width="50" height="50" relative="1" as="geometry">
            <mxPoint x="231.82" y="250" as="sourcePoint" />
            <mxPoint x="231.82" as="targetPoint" />
            <Array as="points">
              <mxPoint x="231.82" y="120" />
            </Array>
          </mxGeometry>
        </mxCell>
        <mxCell id="CWM3fCKkXNQ2MRT5B5kz-9" value="" style="group" parent="CWM3fCKkXNQ2MRT5B5kz-8" vertex="1" connectable="0">
          <mxGeometry x="38.84966880829015" y="50" width="153.54411523316057" height="150" as="geometry" />
        </mxCell>
        <mxCell id="CWM3fCKkXNQ2MRT5B5kz-10" value="" style="endArrow=none;dashed=1;html=1;rounded=0;strokeWidth=1;" parent="CWM3fCKkXNQ2MRT5B5kz-9" edge="1">
          <mxGeometry width="50" height="50" relative="1" as="geometry">
            <mxPoint y="150" as="sourcePoint" />
            <mxPoint x="0.7955653639023861" as="targetPoint" />
          </mxGeometry>
        </mxCell>
        <mxCell id="CWM3fCKkXNQ2MRT5B5kz-11" value="" style="endArrow=none;dashed=1;html=1;rounded=0;strokeWidth=1;" parent="CWM3fCKkXNQ2MRT5B5kz-9" edge="1">
          <mxGeometry width="50" height="50" relative="1" as="geometry">
            <mxPoint x="0.7955653639023861" as="sourcePoint" />
            <mxPoint x="153.54411523316057" as="targetPoint" />
            <Array as="points">
              <mxPoint x="83.5343632097506" />
            </Array>
          </mxGeometry>
        </mxCell>
        <mxCell id="CWM3fCKkXNQ2MRT5B5kz-12" value="" style="endArrow=none;dashed=1;html=1;rounded=0;strokeWidth=1;" parent="CWM3fCKkXNQ2MRT5B5kz-9" edge="1">
          <mxGeometry width="50" height="50" relative="1" as="geometry">
            <mxPoint y="150" as="sourcePoint" />
            <mxPoint x="153.54411523316057" y="150" as="targetPoint" />
          </mxGeometry>
        </mxCell>
        <mxCell id="CWM3fCKkXNQ2MRT5B5kz-13" value="" style="endArrow=none;dashed=1;html=1;rounded=0;strokeWidth=1;" parent="CWM3fCKkXNQ2MRT5B5kz-9" edge="1">
          <mxGeometry width="50" height="50" relative="1" as="geometry">
            <mxPoint x="153.54411523316057" y="150" as="sourcePoint" />
            <mxPoint x="153.54411523316057" as="targetPoint" />
            <Array as="points">
              <mxPoint x="153.54411523316057" y="72" />
            </Array>
          </mxGeometry>
        </mxCell>
        <mxCell id="M0tVn1bA8UuuEmm1kQKi-80" value="&lt;b&gt;&lt;br&gt;&lt;br&gt;&lt;br&gt;&lt;br&gt;&lt;br&gt;&lt;br&gt;Application&lt;/b&gt;" style="aspect=fixed;sketch=0;html=1;dashed=0;whitespace=wrap;fillColor=#2875E2;strokeColor=#ffffff;points=[[0.005,0.63,0],[0.1,0.2,0],[0.9,0.2,0],[0.5,0,0],[0.995,0.63,0],[0.72,0.99,0],[0.5,1,0],[0.28,0.99,0]];shape=mxgraph.kubernetes.icon2;prIcon=api" parent="CWM3fCKkXNQ2MRT5B5kz-9" vertex="1">
          <mxGeometry x="43.700331191710006" y="30" width="66.15" height="63.5" as="geometry" />
        </mxCell>
        <mxCell id="CWM3fCKkXNQ2MRT5B5kz-5" value="&lt;b&gt;Fargate&lt;/b&gt;" style="sketch=0;points=[[0,0,0],[0.25,0,0],[0.5,0,0],[0.75,0,0],[1,0,0],[0,1,0],[0.25,1,0],[0.5,1,0],[0.75,1,0],[1,1,0],[0,0.25,0],[0,0.5,0],[0,0.75,0],[1,0.25,0],[1,0.5,0],[1,0.75,0]];outlineConnect=0;fontColor=#232F3E;fillColor=#ED7100;strokeColor=#ffffff;dashed=0;verticalLabelPosition=bottom;verticalAlign=top;align=center;html=1;fontSize=12;fontStyle=0;aspect=fixed;shape=mxgraph.aws4.resourceIcon;resIcon=mxgraph.aws4.fargate;" parent="CWM3fCKkXNQ2MRT5B5kz-8" vertex="1">
          <mxGeometry x="192.39378404145071" y="210" width="38.43647668393781" height="38.43647668393781" as="geometry" />
        </mxCell>
        <mxCell id="CWM3fCKkXNQ2MRT5B5kz-15" value="&lt;span style=&quot;color: rgb(0, 0, 0); font-family: Helvetica; font-size: 12px; font-style: normal; font-variant-ligatures: normal; font-variant-caps: normal; letter-spacing: normal; orphans: 2; text-align: center; text-indent: 0px; text-transform: none; widows: 2; word-spacing: 0px; -webkit-text-stroke-width: 0px; background-color: rgb(251, 251, 251); text-decoration-thickness: initial; text-decoration-style: initial; text-decoration-color: initial; float: none; display: inline !important;&quot;&gt;&lt;b&gt;Micro Services&lt;/b&gt;&lt;/span&gt;" style="text;whiteSpace=wrap;html=1;" parent="CWM3fCKkXNQ2MRT5B5kz-8" vertex="1">
          <mxGeometry x="71.70324725388599" y="10" width="88.41350549222797" height="30" as="geometry" />
        </mxCell>
        <mxCell id="KWMwRaJy5w1rbaoSYJWr-1" style="edgeStyle=orthogonalEdgeStyle;rounded=0;orthogonalLoop=1;jettySize=auto;html=1;" edge="1" parent="1" source="KWMwRaJy5w1rbaoSYJWr-2" target="KWMwRaJy5w1rbaoSYJWr-19">
          <mxGeometry relative="1" as="geometry" />
        </mxCell>
        <mxCell id="KWMwRaJy5w1rbaoSYJWr-2" value="&lt;b&gt;User&lt;/b&gt;" style="points=[[0.35,0,0],[0.98,0.51,0],[1,0.71,0],[0.67,1,0],[0,0.795,0],[0,0.65,0]];verticalLabelPosition=bottom;sketch=0;html=1;verticalAlign=top;aspect=fixed;align=center;pointerEvents=1;shape=mxgraph.cisco19.user;fillColor=#005073;strokeColor=none;" vertex="1" parent="1">
          <mxGeometry x="100" y="805.5" width="70" height="70" as="geometry" />
        </mxCell>
        <mxCell id="KWMwRaJy5w1rbaoSYJWr-3" style="edgeStyle=orthogonalEdgeStyle;rounded=0;orthogonalLoop=1;jettySize=auto;html=1;" edge="1" parent="1" source="KWMwRaJy5w1rbaoSYJWr-4">
          <mxGeometry relative="1" as="geometry">
            <mxPoint x="610" y="970" as="targetPoint" />
          </mxGeometry>
        </mxCell>
        <mxCell id="KWMwRaJy5w1rbaoSYJWr-4" value="&lt;b&gt;Load Balance&lt;/b&gt;" style="outlineConnect=0;dashed=0;verticalLabelPosition=bottom;verticalAlign=top;align=center;html=1;shape=mxgraph.aws3.application_load_balancer;fillColor=#F58536;gradientColor=none;" vertex="1" parent="1">
          <mxGeometry x="487" y="805.5" width="69" height="72" as="geometry" />
        </mxCell>
        <mxCell id="KWMwRaJy5w1rbaoSYJWr-5" style="edgeStyle=orthogonalEdgeStyle;rounded=0;orthogonalLoop=1;jettySize=auto;html=1;" edge="1" parent="1">
          <mxGeometry relative="1" as="geometry">
            <mxPoint x="418.5" y="1495" as="targetPoint" />
            <mxPoint x="281.5" y="1495.5" as="sourcePoint" />
          </mxGeometry>
        </mxCell>
        <mxCell id="KWMwRaJy5w1rbaoSYJWr-6" value="commit code by branch" style="text;strokeColor=none;align=center;fillColor=none;html=1;verticalAlign=middle;whiteSpace=wrap;rounded=0;" vertex="1" parent="1">
          <mxGeometry x="300" y="1453.12" width="100" height="30" as="geometry" />
        </mxCell>
        <mxCell id="KWMwRaJy5w1rbaoSYJWr-7" style="edgeStyle=orthogonalEdgeStyle;rounded=0;orthogonalLoop=1;jettySize=auto;html=1;entryX=0;entryY=0.423;entryDx=0;entryDy=0;entryPerimeter=0;" edge="1" parent="1" source="KWMwRaJy5w1rbaoSYJWr-8" target="KWMwRaJy5w1rbaoSYJWr-11">
          <mxGeometry relative="1" as="geometry">
            <mxPoint x="757" y="1494.9999999999998" as="targetPoint" />
          </mxGeometry>
        </mxCell>
        <mxCell id="KWMwRaJy5w1rbaoSYJWr-8" value="Jenkins" style="shape=image;verticalLabelPosition=bottom;labelBackgroundColor=default;verticalAlign=top;aspect=fixed;imageAspect=0;image=https://upload.wikimedia.org/wikipedia/commons/thumb/e/e9/Jenkins_logo.svg/1200px-Jenkins_logo.svg.png;fontStyle=1" vertex="1" parent="1">
          <mxGeometry x="597" y="1467.3799999999999" width="40" height="55.24" as="geometry" />
        </mxCell>
        <mxCell id="KWMwRaJy5w1rbaoSYJWr-9" value="Web hook trigger" style="text;strokeColor=none;align=center;fillColor=none;html=1;verticalAlign=middle;whiteSpace=wrap;rounded=0;" vertex="1" parent="1">
          <mxGeometry x="510" y="1453.12" width="60" height="30" as="geometry" />
        </mxCell>
        <mxCell id="KWMwRaJy5w1rbaoSYJWr-10" style="edgeStyle=orthogonalEdgeStyle;rounded=0;orthogonalLoop=1;jettySize=auto;html=1;" edge="1" parent="1" source="KWMwRaJy5w1rbaoSYJWr-11">
          <mxGeometry relative="1" as="geometry">
            <mxPoint x="947" y="1498.6799999999998" as="targetPoint" />
          </mxGeometry>
        </mxCell>
        <mxCell id="KWMwRaJy5w1rbaoSYJWr-11" value="&lt;b&gt;Build&lt;/b&gt;" style="image;sketch=0;aspect=fixed;html=1;points=[];align=center;fontSize=12;image=img/lib/mscae/Docker.svg;" vertex="1" parent="1">
          <mxGeometry x="767" y="1474.7399999999998" width="58.39" height="47.88" as="geometry" />
        </mxCell>
        <mxCell id="KWMwRaJy5w1rbaoSYJWr-12" value="Build Image" style="text;strokeColor=none;align=center;fillColor=none;html=1;verticalAlign=middle;whiteSpace=wrap;rounded=0;" vertex="1" parent="1">
          <mxGeometry x="659.75" y="1468.69" width="74.5" height="22.62" as="geometry" />
        </mxCell>
        <mxCell id="KWMwRaJy5w1rbaoSYJWr-13" value="&lt;div style=&quot;&quot;&gt;&lt;b style=&quot;background-color: initial;&quot;&gt;ECR&lt;/b&gt;&lt;/div&gt;" style="sketch=0;points=[[0,0,0],[0.25,0,0],[0.5,0,0],[0.75,0,0],[1,0,0],[0,1,0],[0.25,1,0],[0.5,1,0],[0.75,1,0],[1,1,0],[0,0.25,0],[0,0.5,0],[0,0.75,0],[1,0.25,0],[1,0.5,0],[1,0.75,0]];outlineConnect=0;fontColor=#232F3E;fillColor=#ED7100;strokeColor=#ffffff;dashed=0;verticalLabelPosition=bottom;verticalAlign=top;align=center;html=1;fontSize=12;fontStyle=0;aspect=fixed;shape=mxgraph.aws4.resourceIcon;resIcon=mxgraph.aws4.ecr;" vertex="1" parent="1">
          <mxGeometry x="957" y="1453.12" width="67" height="67" as="geometry" />
        </mxCell>
        <mxCell id="KWMwRaJy5w1rbaoSYJWr-14" value="&lt;b&gt;Developer&lt;/b&gt;" style="sketch=0;pointerEvents=1;shadow=0;dashed=0;html=1;strokeColor=none;fillColor=#505050;labelPosition=center;verticalLabelPosition=bottom;verticalAlign=top;outlineConnect=0;align=center;shape=mxgraph.office.users.users;" vertex="1" parent="1">
          <mxGeometry x="230.5" y="1467.62" width="50" height="55" as="geometry" />
        </mxCell>
        <mxCell id="KWMwRaJy5w1rbaoSYJWr-15" style="edgeStyle=orthogonalEdgeStyle;rounded=0;orthogonalLoop=1;jettySize=auto;html=1;entryX=0;entryY=0.5;entryDx=0;entryDy=0;" edge="1" parent="1" source="KWMwRaJy5w1rbaoSYJWr-16" target="KWMwRaJy5w1rbaoSYJWr-8">
          <mxGeometry relative="1" as="geometry" />
        </mxCell>
        <mxCell id="KWMwRaJy5w1rbaoSYJWr-16" value="&lt;b&gt;Github&lt;/b&gt;" style="dashed=0;outlineConnect=0;html=1;align=center;labelPosition=center;verticalLabelPosition=bottom;verticalAlign=top;shape=mxgraph.weblogos.github" vertex="1" parent="1">
          <mxGeometry x="427" y="1465" width="60" height="60" as="geometry" />
        </mxCell>
        <mxCell id="KWMwRaJy5w1rbaoSYJWr-17" value="API Request" style="text;strokeColor=none;align=center;fillColor=none;html=1;verticalAlign=middle;whiteSpace=wrap;rounded=0;" vertex="1" parent="1">
          <mxGeometry x="200" y="805.5" width="60" height="30" as="geometry" />
        </mxCell>
        <mxCell id="KWMwRaJy5w1rbaoSYJWr-18" style="edgeStyle=orthogonalEdgeStyle;rounded=0;orthogonalLoop=1;jettySize=auto;html=1;" edge="1" parent="1" source="KWMwRaJy5w1rbaoSYJWr-19">
          <mxGeometry relative="1" as="geometry">
            <mxPoint x="480" y="840.5" as="targetPoint" />
          </mxGeometry>
        </mxCell>
        <mxCell id="KWMwRaJy5w1rbaoSYJWr-19" value="&lt;b&gt;&amp;nbsp;Route 53&lt;/b&gt;" style="outlineConnect=0;dashed=0;verticalLabelPosition=bottom;verticalAlign=top;align=center;html=1;shape=mxgraph.aws3.route_53;fillColor=#F58536;gradientColor=none;" vertex="1" parent="1">
          <mxGeometry x="290" y="797.75" width="70.5" height="85.5" as="geometry" />
        </mxCell>
        <mxCell id="KWMwRaJy5w1rbaoSYJWr-20" value="Maven Build" style="text;strokeColor=none;align=center;fillColor=none;html=1;verticalAlign=middle;whiteSpace=wrap;rounded=0;" vertex="1" parent="1">
          <mxGeometry x="637" y="1500" width="120" height="20" as="geometry" />
        </mxCell>
        <mxCell id="KWMwRaJy5w1rbaoSYJWr-21" value="Push Image to ECR" style="text;strokeColor=none;align=center;fillColor=none;html=1;verticalAlign=middle;whiteSpace=wrap;rounded=0;rotation=0;" vertex="1" parent="1">
          <mxGeometry x="847" y="1465" width="74.5" height="30" as="geometry" />
        </mxCell>
        <mxCell id="KWMwRaJy5w1rbaoSYJWr-22" style="edgeStyle=orthogonalEdgeStyle;rounded=0;orthogonalLoop=1;jettySize=auto;html=1;" edge="1" parent="1" source="KWMwRaJy5w1rbaoSYJWr-23">
          <mxGeometry relative="1" as="geometry">
            <mxPoint x="617" y="1220" as="targetPoint" />
          </mxGeometry>
        </mxCell>
        <mxCell id="KWMwRaJy5w1rbaoSYJWr-23" value="" style="outlineConnect=0;dashed=0;verticalLabelPosition=bottom;verticalAlign=top;align=center;html=1;shape=mxgraph.aws3.codedeploy;fillColor=#759C3E;gradientColor=none;" vertex="1" parent="1">
          <mxGeometry x="585.12" y="1310" width="63.75" height="70" as="geometry" />
        </mxCell>
        <mxCell id="KWMwRaJy5w1rbaoSYJWr-24" style="edgeStyle=orthogonalEdgeStyle;rounded=0;orthogonalLoop=1;jettySize=auto;html=1;entryX=0.5;entryY=1;entryDx=0;entryDy=0;entryPerimeter=0;" edge="1" parent="1" source="KWMwRaJy5w1rbaoSYJWr-8" target="KWMwRaJy5w1rbaoSYJWr-23">
          <mxGeometry relative="1" as="geometry" />
        </mxCell>
        <mxCell id="KWMwRaJy5w1rbaoSYJWr-25" value="&lt;b&gt;AWS Deploy&lt;/b&gt;" style="text;strokeColor=none;align=center;fillColor=none;html=1;verticalAlign=middle;whiteSpace=wrap;rounded=0;" vertex="1" parent="1">
          <mxGeometry x="659.75" y="1333.69" width="74.5" height="22.62" as="geometry" />
        </mxCell>
        <mxCell id="KWMwRaJy5w1rbaoSYJWr-26" value="&lt;b&gt;Cluster&lt;/b&gt;" style="outlineConnect=0;dashed=0;verticalLabelPosition=bottom;verticalAlign=top;align=center;html=1;shape=mxgraph.aws3.emr_cluster;fillColor=#F58534;gradientColor=none;" vertex="1" parent="1">
          <mxGeometry x="839.5" y="1058.56" width="70" height="73" as="geometry" />
        </mxCell>
        <mxCell id="KWMwRaJy5w1rbaoSYJWr-27" style="edgeStyle=orthogonalEdgeStyle;rounded=0;orthogonalLoop=1;jettySize=auto;html=1;" edge="1" parent="1">
          <mxGeometry relative="1" as="geometry">
            <mxPoint x="909.5" y="1094.1903448275864" as="sourcePoint" />
            <mxPoint x="1019.5" y="1094.41" as="targetPoint" />
          </mxGeometry>
        </mxCell>
        <mxCell id="KWMwRaJy5w1rbaoSYJWr-28" value="&lt;b&gt;DB Secondary&lt;br&gt;B&lt;br&gt;&lt;/b&gt;" style="sketch=0;points=[[0,0,0],[0.25,0,0],[0.5,0,0],[0.75,0,0],[1,0,0],[0,1,0],[0.25,1,0],[0.5,1,0],[0.75,1,0],[1,1,0],[0,0.25,0],[0,0.5,0],[0,0.75,0],[1,0.25,0],[1,0.5,0],[1,0.75,0]];outlineConnect=0;fontColor=#232F3E;fillColor=#0066CC;strokeColor=#ffffff;dashed=0;verticalLabelPosition=bottom;verticalAlign=top;align=center;html=1;fontSize=12;fontStyle=0;aspect=fixed;shape=mxgraph.aws4.resourceIcon;resIcon=mxgraph.aws4.rds_on_vmware;" vertex="1" parent="1">
          <mxGeometry x="1220" y="1058.56" width="78" height="78" as="geometry" />
        </mxCell>
        <mxCell id="KWMwRaJy5w1rbaoSYJWr-29" style="edgeStyle=orthogonalEdgeStyle;rounded=0;orthogonalLoop=1;jettySize=auto;html=1;" edge="1" parent="1" source="KWMwRaJy5w1rbaoSYJWr-30" target="KWMwRaJy5w1rbaoSYJWr-28">
          <mxGeometry relative="1" as="geometry" />
        </mxCell>
        <mxCell id="KWMwRaJy5w1rbaoSYJWr-30" value="&lt;b&gt;DB Primary&lt;br&gt;A&lt;br&gt;&lt;/b&gt;" style="sketch=0;points=[[0,0,0],[0.25,0,0],[0.5,0,0],[0.75,0,0],[1,0,0],[0,1,0],[0.25,1,0],[0.5,1,0],[0.75,1,0],[1,1,0],[0,0.25,0],[0,0.5,0],[0,0.75,0],[1,0.25,0],[1,0.5,0],[1,0.75,0]];outlineConnect=0;fontColor=#232F3E;fillColor=#0066CC;strokeColor=#ffffff;dashed=0;verticalLabelPosition=bottom;verticalAlign=top;align=center;html=1;fontSize=12;fontStyle=0;aspect=fixed;shape=mxgraph.aws4.resourceIcon;resIcon=mxgraph.aws4.rds;" vertex="1" parent="1">
          <mxGeometry x="1020" y="1058.56" width="78" height="78" as="geometry" />
        </mxCell>
        <mxCell id="KWMwRaJy5w1rbaoSYJWr-31" value="Sync&amp;nbsp;" style="text;strokeColor=none;align=center;fillColor=none;html=1;verticalAlign=middle;whiteSpace=wrap;rounded=0;" vertex="1" parent="1">
          <mxGeometry x="1120" y="1063.44" width="60" height="30" as="geometry" />
        </mxCell>
        <mxCell id="KWMwRaJy5w1rbaoSYJWr-32" style="edgeStyle=orthogonalEdgeStyle;rounded=0;orthogonalLoop=1;jettySize=auto;html=1;entryX=0;entryY=0.5;entryDx=0;entryDy=0;entryPerimeter=0;" edge="1" parent="1" target="KWMwRaJy5w1rbaoSYJWr-26">
          <mxGeometry relative="1" as="geometry">
            <mxPoint x="740" y="1095" as="sourcePoint" />
          </mxGeometry>
        </mxCell>
        <mxCell id="KWMwRaJy5w1rbaoSYJWr-33" value="" style="group;rounded=0;fillColor=#f5f5f5;fontColor=#333333;strokeColor=#666666;" vertex="1" connectable="0" parent="1">
          <mxGeometry x="444.65" y="939.72" width="330" height="310" as="geometry" />
        </mxCell>
        <mxCell id="KWMwRaJy5w1rbaoSYJWr-34" value="" style="endArrow=none;dashed=1;html=1;rounded=0;strokeColor=#007FFF;" edge="1" parent="KWMwRaJy5w1rbaoSYJWr-33">
          <mxGeometry width="50" height="50" relative="1" as="geometry">
            <mxPoint as="sourcePoint" />
            <mxPoint x="330" as="targetPoint" />
          </mxGeometry>
        </mxCell>
        <mxCell id="KWMwRaJy5w1rbaoSYJWr-35" value="" style="endArrow=none;dashed=1;html=1;rounded=0;strokeColor=#007FFF;" edge="1" parent="KWMwRaJy5w1rbaoSYJWr-33">
          <mxGeometry width="50" height="50" relative="1" as="geometry">
            <mxPoint as="sourcePoint" />
            <mxPoint y="310" as="targetPoint" />
          </mxGeometry>
        </mxCell>
        <mxCell id="KWMwRaJy5w1rbaoSYJWr-36" value="" style="endArrow=none;dashed=1;html=1;rounded=0;strokeColor=#007FFF;" edge="1" parent="KWMwRaJy5w1rbaoSYJWr-33">
          <mxGeometry width="50" height="50" relative="1" as="geometry">
            <mxPoint x="330" y="310" as="sourcePoint" />
            <mxPoint y="310" as="targetPoint" />
          </mxGeometry>
        </mxCell>
        <mxCell id="KWMwRaJy5w1rbaoSYJWr-37" value="" style="endArrow=none;dashed=1;html=1;rounded=0;strokeColor=#007FFF;" edge="1" parent="KWMwRaJy5w1rbaoSYJWr-33">
          <mxGeometry width="50" height="50" relative="1" as="geometry">
            <mxPoint x="330" y="310" as="sourcePoint" />
            <mxPoint x="330" as="targetPoint" />
          </mxGeometry>
        </mxCell>
        <mxCell id="KWMwRaJy5w1rbaoSYJWr-38" value="&lt;div style=&quot;&quot;&gt;Amazon VPC&lt;/div&gt;" style="sketch=0;outlineConnect=0;fontColor=#232F3E;gradientColor=none;strokeColor=#ffffff;fillColor=#232F3E;dashed=0;verticalLabelPosition=middle;verticalAlign=bottom;align=center;html=1;whiteSpace=wrap;fontSize=10;fontStyle=1;spacing=3;shape=mxgraph.aws4.productIcon;prIcon=mxgraph.aws4.vpc;" vertex="1" parent="KWMwRaJy5w1rbaoSYJWr-33">
          <mxGeometry x="5.350000000000023" y="10.279999999999973" width="40" height="80" as="geometry" />
        </mxCell>
        <mxCell id="KWMwRaJy5w1rbaoSYJWr-39" value="" style="group;strokeColor=#d6b656;fillColor=#fff2cc;" vertex="1" connectable="0" parent="1">
          <mxGeometry x="500" y="970" width="231.82" height="250" as="geometry" />
        </mxCell>
        <mxCell id="KWMwRaJy5w1rbaoSYJWr-40" value="" style="endArrow=none;dashed=1;html=1;rounded=0;strokeWidth=1;" edge="1" parent="KWMwRaJy5w1rbaoSYJWr-39">
          <mxGeometry width="50" height="50" relative="1" as="geometry">
            <mxPoint y="250" as="sourcePoint" />
            <mxPoint x="1.2011398963730566" as="targetPoint" />
          </mxGeometry>
        </mxCell>
        <mxCell id="KWMwRaJy5w1rbaoSYJWr-41" value="" style="endArrow=none;dashed=1;html=1;rounded=0;strokeWidth=1;" edge="1" parent="KWMwRaJy5w1rbaoSYJWr-39">
          <mxGeometry width="50" height="50" relative="1" as="geometry">
            <mxPoint x="1.2011398963730566" as="sourcePoint" />
            <mxPoint x="231.82" as="targetPoint" />
            <Array as="points">
              <mxPoint x="126.11968911917101" />
            </Array>
          </mxGeometry>
        </mxCell>
        <mxCell id="KWMwRaJy5w1rbaoSYJWr-42" value="" style="endArrow=none;dashed=1;html=1;rounded=0;strokeWidth=1;" edge="1" parent="KWMwRaJy5w1rbaoSYJWr-39">
          <mxGeometry width="50" height="50" relative="1" as="geometry">
            <mxPoint y="250" as="sourcePoint" />
            <mxPoint x="231.82" y="250" as="targetPoint" />
          </mxGeometry>
        </mxCell>
        <mxCell id="KWMwRaJy5w1rbaoSYJWr-43" value="" style="endArrow=none;dashed=1;html=1;rounded=0;strokeWidth=1;" edge="1" parent="KWMwRaJy5w1rbaoSYJWr-39">
          <mxGeometry width="50" height="50" relative="1" as="geometry">
            <mxPoint x="231.82" y="250" as="sourcePoint" />
            <mxPoint x="231.82" as="targetPoint" />
            <Array as="points">
              <mxPoint x="231.82" y="120" />
            </Array>
          </mxGeometry>
        </mxCell>
        <mxCell id="KWMwRaJy5w1rbaoSYJWr-44" value="&lt;b&gt;Fargate&lt;/b&gt;" style="sketch=0;points=[[0,0,0],[0.25,0,0],[0.5,0,0],[0.75,0,0],[1,0,0],[0,1,0],[0.25,1,0],[0.5,1,0],[0.75,1,0],[1,1,0],[0,0.25,0],[0,0.5,0],[0,0.75,0],[1,0.25,0],[1,0.5,0],[1,0.75,0]];outlineConnect=0;fontColor=#232F3E;fillColor=#ED7100;strokeColor=#ffffff;dashed=0;verticalLabelPosition=bottom;verticalAlign=top;align=center;html=1;fontSize=12;fontStyle=0;aspect=fixed;shape=mxgraph.aws4.resourceIcon;resIcon=mxgraph.aws4.fargate;" vertex="1" parent="KWMwRaJy5w1rbaoSYJWr-39">
          <mxGeometry x="200" y="217.61" width="30.83" height="30.83" as="geometry" />
        </mxCell>
        <mxCell id="KWMwRaJy5w1rbaoSYJWr-45" value="" style="aspect=fixed;sketch=0;html=1;dashed=0;whitespace=wrap;fillColor=#2875E2;strokeColor=#ffffff;points=[[0.005,0.63,0],[0.1,0.2,0],[0.9,0.2,0],[0.5,0,0],[0.995,0.63,0],[0.72,0.99,0],[0.5,1,0],[0.28,0.99,0]];shape=mxgraph.kubernetes.icon2;prIcon=api" vertex="1" parent="KWMwRaJy5w1rbaoSYJWr-39">
          <mxGeometry x="30" y="30.000000000000114" width="46.7" height="44.83" as="geometry" />
        </mxCell>
        <mxCell id="KWMwRaJy5w1rbaoSYJWr-46" value="" style="aspect=fixed;sketch=0;html=1;dashed=0;whitespace=wrap;fillColor=#2875E2;strokeColor=#ffffff;points=[[0.005,0.63,0],[0.1,0.2,0],[0.9,0.2,0],[0.5,0,0],[0.995,0.63,0],[0.72,0.99,0],[0.5,1,0],[0.28,0.99,0]];shape=mxgraph.kubernetes.icon2;prIcon=api" vertex="1" parent="KWMwRaJy5w1rbaoSYJWr-39">
          <mxGeometry x="30" y="176" width="46.7" height="44.83" as="geometry" />
        </mxCell>
        <mxCell id="KWMwRaJy5w1rbaoSYJWr-47" value="" style="aspect=fixed;sketch=0;html=1;dashed=0;whitespace=wrap;fillColor=#2875E2;strokeColor=#ffffff;points=[[0.005,0.63,0],[0.1,0.2,0],[0.9,0.2,0],[0.5,0,0],[0.995,0.63,0],[0.72,0.99,0],[0.5,1,0],[0.28,0.99,0]];shape=mxgraph.kubernetes.icon2;prIcon=api" vertex="1" parent="KWMwRaJy5w1rbaoSYJWr-39">
          <mxGeometry x="92.55999999999995" y="140" width="46.7" height="44.83" as="geometry" />
        </mxCell>
        <mxCell id="KWMwRaJy5w1rbaoSYJWr-48" value="" style="aspect=fixed;sketch=0;html=1;dashed=0;whitespace=wrap;fillColor=#2875E2;strokeColor=#ffffff;points=[[0.005,0.63,0],[0.1,0.2,0],[0.9,0.2,0],[0.5,0,0],[0.995,0.63,0],[0.72,0.99,0],[0.5,1,0],[0.28,0.99,0]];shape=mxgraph.kubernetes.icon2;prIcon=api" vertex="1" parent="KWMwRaJy5w1rbaoSYJWr-39">
          <mxGeometry x="92.55999999999995" y="60" width="46.7" height="44.83" as="geometry" />
        </mxCell>
        <mxCell id="KWMwRaJy5w1rbaoSYJWr-49" value="" style="aspect=fixed;sketch=0;html=1;dashed=0;whitespace=wrap;fillColor=#2875E2;strokeColor=#ffffff;points=[[0.005,0.63,0],[0.1,0.2,0],[0.9,0.2,0],[0.5,0,0],[0.995,0.63,0],[0.72,0.99,0],[0.5,1,0],[0.28,0.99,0]];shape=mxgraph.kubernetes.icon2;prIcon=api" vertex="1" parent="KWMwRaJy5w1rbaoSYJWr-39">
          <mxGeometry x="152" y="30.000000000000114" width="46.7" height="44.83" as="geometry" />
        </mxCell>
        <mxCell id="KWMwRaJy5w1rbaoSYJWr-50" value="" style="aspect=fixed;sketch=0;html=1;dashed=0;whitespace=wrap;fillColor=#2875E2;strokeColor=#ffffff;points=[[0.005,0.63,0],[0.1,0.2,0],[0.9,0.2,0],[0.5,0,0],[0.995,0.63,0],[0.72,0.99,0],[0.5,1,0],[0.28,0.99,0]];shape=mxgraph.kubernetes.icon2;prIcon=api" vertex="1" parent="KWMwRaJy5w1rbaoSYJWr-39">
          <mxGeometry x="152" y="176" width="46.7" height="44.83" as="geometry" />
        </mxCell>
        <mxCell id="KWMwRaJy5w1rbaoSYJWr-51" value="&lt;b&gt;30 Microservices&lt;/b&gt;" style="text;strokeColor=none;align=center;fillColor=none;html=1;verticalAlign=middle;whiteSpace=wrap;rounded=0;" vertex="1" parent="KWMwRaJy5w1rbaoSYJWr-39">
          <mxGeometry x="59.260000000000005" y="113.69" width="113.3" height="22.62" as="geometry" />
        </mxCell>
      </root>
    </mxGraphModel>
  </diagram>
</mxfile>
